<svg xmlns="http://www.w3.org/2000/svg" xmlns:xlink="http://www.w3.org/1999/xlink" width="150" zoomAndPan="magnify" viewBox="0 0 112.5 37.5" height="50" preserveAspectRatio="xMidYMid meet" version="1.0"><defs><g/><clipPath id="id1"><path d="M 1.566406 2.082031 L 29.074219 2.082031 L 29.074219 34.046875 L 1.566406 34.046875 Z M 1.566406 2.082031 " clip-rule="nonzero"/></clipPath></defs><g clip-path="url(#id1)"><path fill="#eeffff" d="M 22.03125 12.753906 L 20.203125 12.753906 L 21.289062 11.507812 C 21.539062 11.566406 21.796875 11.597656 22.066406 11.597656 C 23.886719 11.597656 25.367188 10.132812 25.378906 8.332031 C 25.390625 6.515625 23.914062 5.03125 22.066406 5.023438 C 20.25 5.023438 18.761719 6.488281 18.753906 8.292969 C 18.75 8.757812 18.847656 9.214844 19.03125 9.636719 L 16.359375 12.753906 L 15.1875 12.753906 L 11.847656 8.65625 C 12.269531 7.984375 12.5 7.207031 12.507812 6.40625 C 12.515625 5.257812 12.070312 4.175781 11.257812 3.359375 C 10.441406 2.542969 9.359375 2.089844 8.171875 2.082031 C 5.800781 2.082031 3.855469 4 3.839844 6.355469 C 3.832031 7.503906 4.277344 8.585938 5.089844 9.40625 C 5.90625 10.222656 6.992188 10.675781 8.171875 10.683594 C 8.484375 10.683594 8.792969 10.652344 9.089844 10.589844 L 10.847656 12.761719 L 8.605469 12.761719 C 5.4375 12.753906 1.570312 13.703125 1.570312 20.199219 L 1.570312 27.066406 C 1.570312 30.910156 4.738281 34.046875 8.609375 34.046875 L 22.03125 34.046875 C 25.898438 34.046875 29.070312 30.910156 29.070312 27.066406 L 29.070312 20.199219 C 29.070312 14.425781 25.203125 12.753906 22.03125 12.753906 Z M 22.738281 30.015625 L 7.902344 30.015625 C 6.8125 30.015625 5.890625 29.101562 5.890625 28.019531 L 5.902344 20.199219 L 5.902344 19.007812 C 5.941406 17.957031 6.839844 17.082031 7.902344 17.082031 L 22.738281 17.082031 C 23.828125 17.082031 24.75 17.996094 24.75 19.078125 L 24.742188 26.902344 L 24.75 26.902344 L 24.75 28.019531 C 24.75 29.101562 23.828125 30.015625 22.738281 30.015625 Z M 22.738281 30.015625 " fill-opacity="1" fill-rule="nonzero"/></g><path fill="#6bedaf" d="M 12.328125 25.863281 C 12.320312 24.597656 12.3125 22.519531 12.304688 21.25 C 12.296875 19.984375 13.253906 19.460938 14.347656 20.085938 C 15.4375 20.714844 17.261719 21.742188 18.355469 22.371094 C 19.445312 23.003906 19.46875 24.035156 18.382812 24.679688 C 17.296875 25.320312 15.457031 26.367188 14.371094 27.003906 C 13.289062 27.644531 12.332031 27.128906 12.328125 25.863281 Z M 12.328125 25.863281 " fill-opacity="1" fill-rule="nonzero"/><g fill="#6bedaf" fill-opacity="1"><g transform="translate(28.853578, 32.917697)"><g><path d="M 13.78125 -19.28125 L 13.78125 -15.0625 L 7.078125 -15.0625 L 7.078125 -11.21875 L 13.5 -11.21875 L 13.5 -7.1875 L 7.078125 -7.1875 L 7.078125 0 L 2.265625 0 L 2.265625 -19.28125 Z M 13.78125 -19.28125 "/></g></g></g><g fill="#6bedaf" fill-opacity="1"><g transform="translate(42.705154, 32.917697)"><g><path d="M 6.46875 0 L 1.875 0 L 1.875 -19.828125 L 6.46875 -19.828125 Z M 6.46875 0 "/></g></g></g><g fill="#6bedaf" fill-opacity="1"><g transform="translate(50.002595, 32.917697)"><g><path d="M 6.328125 0 L 1.734375 0 L 1.734375 -14.328125 L 6.328125 -14.328125 Z M 6.171875 -16.53125 L 1.4375 -16.53125 L 1.4375 -20.21875 L 6.171875 -20.21875 Z M 6.171875 -16.53125 "/></g></g></g><g fill="#6bedaf" fill-opacity="1"><g transform="translate(57.024653, 32.917697)"><g><path d="M 11.375 -7.46875 L 16.421875 0 L 11.375 0 L 8.40625 -4.734375 L 5.40625 0 L 0.40625 0 L 5.484375 -7.359375 L 0.796875 -14.328125 L 5.75 -14.328125 L 8.453125 -9.859375 L 11.15625 -14.328125 L 16.09375 -14.328125 Z M 11.375 -7.46875 "/></g></g></g><g fill="#6bedaf" fill-opacity="1"><g transform="translate(72.776377, 32.917697)"><g><path d="M 10.6875 -10.28125 L 7.40625 -10.28125 L 7.40625 -6.25 C 7.40625 -5.570312 7.59375 -5.039062 7.96875 -4.65625 C 8.351562 -4.269531 8.882812 -4.078125 9.5625 -4.078125 L 10.6875 -4.078125 L 10.6875 0 L 8.15625 0 C 6.445312 0 5.128906 -0.472656 4.203125 -1.421875 C 3.273438 -2.378906 2.8125 -3.707031 2.8125 -5.40625 L 2.8125 -10.28125 L 0.46875 -10.28125 L 0.46875 -14.328125 L 2.8125 -14.328125 L 2.8125 -18.125 L 7.40625 -18.125 L 7.40625 -14.328125 L 10.6875 -14.328125 Z M 10.6875 -10.28125 "/></g></g></g><g fill="#6bedaf" fill-opacity="1"><g transform="translate(83.543657, 32.917697)"><g><path d="M 8.484375 -14.6875 C 9.835938 -14.6875 11.097656 -14.375 12.265625 -13.75 C 13.429688 -13.125 14.367188 -12.242188 15.078125 -11.109375 C 15.785156 -9.984375 16.140625 -8.703125 16.140625 -7.265625 C 16.140625 -6.847656 16.09375 -6.363281 16 -5.8125 L 5.375 -5.8125 C 5.550781 -4.945312 5.914062 -4.273438 6.46875 -3.796875 C 7.019531 -3.316406 7.710938 -3.078125 8.546875 -3.078125 C 9.203125 -3.078125 9.753906 -3.195312 10.203125 -3.4375 C 10.648438 -3.675781 11.03125 -4.035156 11.34375 -4.515625 L 15.734375 -4.515625 C 15.203125 -3.066406 14.3125 -1.890625 13.0625 -0.984375 C 11.8125 -0.0859375 10.285156 0.359375 8.484375 0.359375 C 7.109375 0.359375 5.832031 0.046875 4.65625 -0.578125 C 3.476562 -1.203125 2.535156 -2.082031 1.828125 -3.21875 C 1.117188 -4.363281 0.765625 -5.675781 0.765625 -7.15625 C 0.765625 -8.644531 1.117188 -9.957031 1.828125 -11.09375 C 2.535156 -12.238281 3.476562 -13.125 4.65625 -13.75 C 5.832031 -14.375 7.109375 -14.6875 8.484375 -14.6875 Z M 8.484375 -11.21875 C 7.710938 -11.21875 7.054688 -11 6.515625 -10.5625 C 5.972656 -10.132812 5.601562 -9.503906 5.40625 -8.671875 L 11.625 -8.671875 C 11.476562 -9.429688 11.140625 -10.046875 10.609375 -10.515625 C 10.078125 -10.984375 9.367188 -11.21875 8.484375 -11.21875 Z M 8.484375 -11.21875 "/></g></g></g><g fill="#6bedaf" fill-opacity="1"><g transform="translate(99.377998, 32.917697)"><g><path d="M 11.546875 -14.484375 L 11.546875 -10.40625 L 9.703125 -10.40625 C 8.765625 -10.40625 7.96875 -10.085938 7.3125 -9.453125 C 6.65625 -8.828125 6.328125 -8.019531 6.328125 -7.03125 L 6.328125 0 L 1.734375 0 L 1.734375 -14.328125 L 6 -14.328125 L 6 -12.671875 C 7.101562 -13.878906 8.570312 -14.484375 10.40625 -14.484375 Z M 11.546875 -14.484375 "/></g></g></g></svg>